<svg width="50" height="50" viewBox="0 0 50 50" fill="none" xmlns="http://www.w3.org/2000/svg">
    <rect width="50" height="50" rx="25" fill="white"/>
    <path d="M15 25C15 20.522 15 18.282 16.391 16.891C17.782 15.5 20.021 15.5 24.5 15.5C28.978 15.5 31.218 15.5 32.609 16.891C34 18.282 34 20.521 34 25C34 29.478 34 31.718 32.609 33.109C31.218 34.5 28.979 34.5 24.5 34.5C20.022 34.5 17.782 34.5 16.391 33.109C15 31.718 15 29.479 15 25Z" stroke="black" stroke-width="1.5" stroke-linecap="round" stroke-linejoin="round"/>
    <path d="M30.008 19.5H29.998M29 25C29 26.1935 28.5259 27.3381 27.682 28.182C26.8381 29.0259 25.6935 29.5 24.5 29.5C23.3065 29.5 22.1619 29.0259 21.318 28.182C20.4741 27.3381 20 26.1935 20 25C20 23.8065 20.4741 22.6619 21.318 21.818C22.1619 20.9741 23.3065 20.5 24.5 20.5C25.6935 20.5 26.8381 20.9741 27.682 21.818C28.5259 22.6619 29 23.8065 29 25Z" stroke="black" stroke-width="1.5" stroke-linecap="round" stroke-linejoin="round"/>
</svg>