<svg width="50" height="50" viewBox="0 0 50 50" fill="none" xmlns="http://www.w3.org/2000/svg">
    <rect width="50" height="50" rx="25" fill="white"/>
    <path d="M19.2979 22.918V30.2096M23.4646 26.043V30.2096M23.4646 26.043C23.4646 25.6326 23.5454 25.2262 23.7025 24.8471C23.8595 24.4679 24.0897 24.1234 24.3799 23.8333C24.6701 23.5431 25.0146 23.3129 25.3937 23.1558C25.7728 22.9988 26.1792 22.918 26.5896 22.918C27 22.918 27.4063 22.9988 27.7855 23.1558C28.1646 23.3129 28.5091 23.5431 28.7993 23.8333C29.0895 24.1234 29.3197 24.4679 29.4767 24.8471C29.6338 25.2262 29.7146 25.6326 29.7146 26.043V30.2096M23.4646 26.043V22.918M19.3062 19.793H19.2969" stroke="black" stroke-width="1.25" stroke-linecap="round" stroke-linejoin="round"/>
    <path d="M14.6094 25.0013C14.6094 20.3367 14.6094 18.0034 16.0583 16.5544C17.5073 15.1055 19.8396 15.1055 24.5052 15.1055C29.1698 15.1055 31.5031 15.1055 32.9521 16.5544C34.401 18.0034 34.401 20.3357 34.401 25.0013C34.401 29.6659 34.401 31.9992 32.9521 33.4482C31.5031 34.8971 29.1708 34.8971 24.5052 34.8971C19.8406 34.8971 17.5073 34.8971 16.0583 33.4482C14.6094 31.9992 14.6094 29.6669 14.6094 25.0013Z" stroke="black" stroke-width="1.25" stroke-linecap="round" stroke-linejoin="round"/>
</svg>