<svg width="50" height="50" viewBox="0 0 50 50" fill="none" xmlns="http://www.w3.org/2000/svg">
    <rect width="50" height="50" rx="25" fill="white"/>
    <path fill-rule="evenodd" clip-rule="evenodd" d="M21.068 18.0012C19.473 17.8912 18.203 18.8172 17.315 19.9802C16.422 21.1502 15.793 22.7002 15.445 24.2482C15.099 25.7952 15.012 27.4372 15.291 28.8122C15.563 30.1482 16.255 31.5222 17.711 31.9572C19.1 32.3722 20.346 31.7822 21.298 30.9812C22.252 30.1792 23.078 29.0352 23.744 27.9302C24.266 27.0632 24.712 26.1802 25.062 25.4262C25.412 26.1792 25.858 27.0632 26.379 27.9302C27.045 29.0352 27.871 30.1792 28.825 30.9812C29.777 31.7822 31.023 32.3722 32.412 31.9572C33.868 31.5222 34.56 30.1482 34.832 28.8122C35.112 27.4372 35.024 25.7952 34.678 24.2482C34.33 22.7002 33.701 21.1492 32.808 19.9802C31.921 18.8172 30.651 17.8902 29.056 18.0012C27.322 18.1212 26.086 19.4702 25.369 20.4892C25.2628 20.6416 25.1604 20.7966 25.062 20.9542C24.9637 20.7964 24.861 20.6413 24.754 20.4892C24.037 19.4692 22.802 18.1222 21.068 18.0012ZM23.918 23.0262C23.635 23.7412 22.948 25.3742 22.03 26.8992C21.409 27.9312 20.717 28.8572 20.01 29.4512C19.303 30.0452 18.748 30.1792 18.285 30.0412C17.889 29.9232 17.468 29.4812 17.251 28.4142C17.043 27.3872 17.094 26.0392 17.397 24.6862C17.701 23.3332 18.235 22.0722 18.905 21.1932C19.58 20.3082 20.274 19.9512 20.929 19.9972C21.695 20.0502 22.459 20.7022 23.117 21.6392C23.485 22.1622 23.76 22.6912 23.917 23.0252L23.918 23.0262ZM26.206 23.0262C26.488 23.7412 27.176 25.3742 28.093 26.8992C28.715 27.9312 29.407 28.8572 30.113 29.4512C30.821 30.0462 31.375 30.1792 31.839 30.0412C32.234 29.9232 32.655 29.4812 32.872 28.4142C33.081 27.3872 33.03 26.0392 32.726 24.6862C32.422 23.3332 31.889 22.0722 31.218 21.1932C30.543 20.3082 29.85 19.9512 29.194 19.9972C28.428 20.0502 27.664 20.7022 27.006 21.6392C26.7012 22.0781 26.4336 22.5418 26.206 23.0252V23.0262Z" fill="black"/>
</svg>