<svg width="50" height="50" viewBox="0 0 50 50" fill="none" xmlns="http://www.w3.org/2000/svg">
    <rect width="50" height="50" rx="25" fill="white"/>
    <path fill-rule="evenodd" clip-rule="evenodd" d="M32.753 17.659C32.8395 17.5601 32.9056 17.4452 32.9477 17.3207C32.9897 17.1963 33.0069 17.0647 32.9981 16.9337C32.9893 16.8026 32.9548 16.6746 32.8965 16.5568C32.8383 16.4391 32.7574 16.334 32.6585 16.2475C32.5596 16.161 32.4447 16.0949 32.3202 16.0528C32.1958 16.0108 32.0642 15.9936 31.9332 16.0024C31.8021 16.0112 31.6741 16.0457 31.5563 16.104C31.4386 16.1622 31.3335 16.2431 31.247 16.342L26.137 22.182L21.8 16.4C21.7069 16.2758 21.5861 16.175 21.4472 16.1056C21.3084 16.0361 21.1552 16 21 16H17C16.8143 16 16.6322 16.0517 16.4743 16.1493C16.3163 16.247 16.1886 16.3867 16.1056 16.5528C16.0225 16.7189 15.9874 16.9048 16.004 17.0898C16.0207 17.2748 16.0886 17.4514 16.2 17.6L22.637 26.182L17.247 32.342C17.1605 32.4409 17.0944 32.5558 17.0523 32.6803C17.0103 32.8047 16.9931 32.9363 17.0019 33.0673C17.0107 33.1984 17.0452 33.3264 17.1035 33.4442C17.1617 33.5619 17.2426 33.667 17.3415 33.7535C17.4404 33.84 17.5553 33.9061 17.6798 33.9482C17.8042 33.9902 17.9358 34.0074 18.0668 33.9986C18.1979 33.9898 18.3259 33.9553 18.4437 33.897C18.5614 33.8388 18.6665 33.7579 18.753 33.659L23.863 27.818L28.2 33.6C28.2931 33.7242 28.4139 33.825 28.5528 33.8944C28.6916 33.9639 28.8448 34 29 34H33C33.1857 34 33.3678 33.9483 33.5257 33.8507C33.6837 33.753 33.8114 33.6133 33.8944 33.4472C33.9775 33.2811 34.0126 33.0952 33.996 32.9102C33.9793 32.7252 33.9114 32.5486 33.8 32.4L27.363 23.818L32.753 17.659ZM29.5 32L19 18H20.5L31 32H29.5Z" fill="black"/>
</svg>